<?xml version="1.0" encoding="utf-8"?>
<!-- Generator: Adobe Illustrator 18.1.1, SVG Export Plug-In . SVG Version: 6.00 Build 0)  -->
<svg version="1.1" id="Layer_1" xmlns="http://www.w3.org/2000/svg" xmlns:xlink="http://www.w3.org/1999/xlink" x="0px" y="0px"
	 viewBox="0 0 806 792" enable-background="new 0 0 806 792" xml:space="preserve">
<path fill="#C79D3F" d="M185.9,247.2c-14.5-4.9-29.9,0-44.4,3.4c-37.3,8.6-77.4,6.5-113.5-7.1c6.2,12.3,15.7,22.8,28.7,28.4
	c22.2,9.9,47.2,9.9,70.9,4c13-3.1,22.8-12.6,35.2-17c18.8-6.5,35.5,2.2,40.1,4C198.9,256.5,194,249.4,185.9,247.2z M186.2,253.4
	c-11.7-1.9-20.4-0.6-30.8,3.7c-24.1,10.5-45.3,23.8-77.1,16c3.4-1.5,6.8-3.1,10.2-4.3c-11.7,2.5-24.7,3.1-33.9-3.4
	c2.5-0.3,5.6-1.5,11.1-4.3c-5.6,0.6-17.3,6.5-31.5-11.4c27.5,9.9,55.8,13.6,84.5,8.9c14.8-1.9,29-7.4,43.8-9.9
	c10.8-1.9,25.3,1.2,31.2,7.4C192.4,255.2,188.1,253.7,186.2,253.4z"/>
<path d="M135.7,315.1c0,1.2-2.5,18.8-1.9,20.7c50.6,1.9,76.8,1.9,107.3,1.9c-10.2,1.9-20.7,3.1-31.2,3.1
	c-31.8,0.6-63.9,1.9-95.6-0.9c-7.1-0.3-19.4-1.9-19.4-5.9c0-4.6,17.9-10.8,28.4-13.6c-14.5,13.9-9.9,14.5,1.2,15.1
	C127.3,332,134.4,317.2,135.7,315.1z"/>
<path fill="#C79D3F" d="M154.2,314.8c13.9,2.2,27.5,5.2,41,8c-0.6,1.2-1.9,3.4-2.5,4.6c-10.2,0-20.7,1.2-30.5-1.9
	C157.2,324,156,318.5,154.2,314.8z"/>
<path fill="#C79D3F" d="M218.9,327.4c7.4-7.4,18.5-6.5,27.8-8.9c-3.1,3.4-5.2,9.3-10.5,9.3C230.4,328.3,224.8,327.7,218.9,327.4z"/>
<g>
	<path stroke="#000000" stroke-miterlimit="10" d="M120.5,249.7c27.5-13.9,62.9-30.8,94.7-23.8c18.2,3.7,33.3,14.8,42.6,33
		c-0.9-10.8-2.8-17.9-4.3-26.8c11.7,13.3,17.9,30.8,16.7,42.9c-1.2,12.3-10.8,26.5-24.4,32.4c-13.3,6.2-29.9,6.2-44.1,6.2
		c-19.1-0.6-38.6-2.2-57.1-7.7c-12-3.4-24.7-11.7-36.1-10.5c-0.6,4.6,1.5,8.9,3.1,13c-10.8-6.5-21.6-13.6-30.5-22.8
		c16.7,4,33.9,6.8,51.2,4c21.3-2.5,40.4-12.3,61.1-17.6c10.8-2.8,25.3-0.9,33,7.7c6.8,7.7,7.1,15.4,4.9,26.2
		c13.6-2.5,26.5-18.2,26.5-33c-10.5-19.4-38.3-40.4-77.7-38.6C159.1,236.4,140.6,246.3,120.5,249.7z"/>
	<path stroke="#000000" stroke-miterlimit="10" d="M138.8,351.2c23.8,7.1,47.2,8.3,71.6,6.5c-1.9,18.5-3.7,38.3,4.6,55.5
		c3.7,7.7,9.6,14.2,15.7,20.1c-6.2-12.6-12-26.2-12.3-40.7c0-12,0.9-25.3,7.4-35.8c4.9-2.2,10.5-2.8,15.7-4
		c-8.3,16-13.6,34.5-10.5,52.7c1.2,10.8,4.9,21,9.3,30.5c-33-0.9-66.6-4.9-97.8-16.3c-19.4-7.4-39.2-17.9-50.6-36.1
		c-4-7.1-8.6-15.7-4-23.4c8.3,13.3,17.6,26.5,30.8,35.5c18.8,12.3,39.8,21,61.1,27.8c-15.7-13.3-32.4-25-48.4-38.3
		c13.9,5.6,26.8,12,40.7,17.6c-13.6-10.8-27.8-20.1-36.1-36.7C133.6,361.3,134.8,353.6,138.8,351.2z"/>
</g>
<text transform="matrix(1 0 0 1 292.1867 421.1241)" fill="#515151" font-family="'SansSerif'" font-size="35">Crescent Valley High School</text>
<text transform="matrix(1 0 0 1 285.1863 367.4469)" stroke="#000000" stroke-miterlimit="10" font-family="'SansSerifBold'" font-size="114.0958" letter-spacing="11">DREAM</text>
<line fill="none" stroke="#000000" stroke-width="3" stroke-miterlimit="10" x1="293.2" y1="382" x2="743.2" y2="382"/>
</svg>
