<?xml version="1.0" encoding="utf-8"?>
<!-- Generator: Adobe Illustrator 18.1.1, SVG Export Plug-In . SVG Version: 6.00 Build 0)  -->
<svg version="1.1" id="Layer_1" xmlns="http://www.w3.org/2000/svg" xmlns:xlink="http://www.w3.org/1999/xlink" x="0px" y="0px"
	 viewBox="15 261 554 172" enable-background="new 15 261 554 172" xml:space="preserve">
<path fill="#C79D3F" d="M141.2,283c-11-3.7-22.7,0-33.7,2.6c-28.3,6.5-58.8,4.9-86.2-5.4c4.7,9.3,11.9,17.3,21.8,21.6
	c16.9,7.5,35.8,7.5,53.8,3c9.9-2.4,17.3-9.6,26.7-12.9c14.3-4.9,27,1.7,30.4,3C151,290.1,147.3,284.7,141.2,283z M141.4,287.7
	c-8.9-1.4-15.5-0.5-23.4,2.8c-18.3,8-34.4,18.1-58.5,12.1c2.6-1.1,5.2-2.4,7.7-3.3c-8.9,1.9-18.8,2.4-25.7-2.6
	c1.9-0.2,4.3-1.1,8.4-3.3c-4.3,0.5-13.1,4.9-23.9-8.7c20.9,7.5,42.4,10.3,64.2,6.8c11.2-1.4,22-5.6,33.3-7.5
	c8.2-1.4,19.2,0.9,23.7,5.6C146.1,289.1,142.8,288,141.4,287.7z"/>
<path d="M103,334.6c0,0.9-1.9,14.3-1.4,15.7c38.4,1.4,58.3,1.4,81.5,1.4c-7.7,1.4-15.7,2.4-23.7,2.4c-24.1,0.5-48.5,1.4-72.6-0.7
	c-5.4-0.2-14.7-1.4-14.7-4.5c0-3.5,13.6-8.2,21.6-10.3c-11,10.6-7.5,11,0.9,11.5C96.7,347.4,102.1,336.2,103,334.6z"/>
<path fill="#C79D3F" d="M117.1,334.3c10.6,1.7,20.9,3.9,31.1,6.1c-0.5,0.9-1.4,2.6-1.9,3.5c-7.7,0-15.7,0.9-23.2-1.4
	C119.4,341.3,118.5,337.2,117.1,334.3z"/>
<path fill="#C79D3F" d="M166.2,343.9c5.6-5.6,14-4.9,21.1-6.8c-2.4,2.6-3.9,7.1-8,7.1C174.9,344.6,170.7,344.1,166.2,343.9z"/>
<g>
	<path stroke="#000000" stroke-miterlimit="10" d="M91.5,284.9c20.9-10.6,47.8-23.4,71.9-18.1c13.8,2.8,25.3,11.2,32.3,25.1
		c-0.7-8.2-2.1-13.6-3.3-20.3c8.9,10.1,13.6,23.4,12.7,32.6c-0.9,9.3-8.2,20.1-18.5,24.6c-10.1,4.7-22.7,4.7-33.5,4.7
		c-14.5-0.5-29.3-1.7-43.4-5.8c-9.1-2.6-18.8-8.9-27.4-8c-0.5,3.5,1.1,6.8,2.4,9.9c-8.2-4.9-16.4-10.3-23.2-17.3
		c12.7,3,25.7,5.2,38.9,3c16.2-1.9,30.7-9.3,46.4-13.4c8.2-2.1,19.2-0.7,25.1,5.8c5.2,5.8,5.4,11.7,3.7,19.9
		c10.3-1.9,20.1-13.8,20.1-25.1c-8-14.7-29.1-30.7-59-29.3C120.8,274.8,106.8,282.3,91.5,284.9z"/>
	<path stroke="#000000" stroke-miterlimit="10" d="M105.4,362c18.1,5.4,35.8,6.3,54.4,4.9c-1.4,14-2.8,29.1,3.5,42.1
		c2.8,5.8,7.3,10.8,11.9,15.3c-4.7-9.6-9.1-19.9-9.3-30.9c0-9.1,0.7-19.2,5.6-27.2c3.7-1.7,8-2.1,11.9-3c-6.3,12.1-10.3,26.2-8,40
		c0.9,8.2,3.7,15.9,7.1,23.2c-25.1-0.7-50.6-3.7-74.3-12.4c-14.7-5.6-29.8-13.6-38.4-27.4c-3-5.4-6.5-11.9-3-17.8
		c6.3,10.1,13.4,20.1,23.4,27c14.3,9.3,30.2,15.9,46.4,21.1c-11.9-10.1-24.6-19-36.8-29.1c10.6,4.3,20.3,9.1,30.9,13.4
		c-10.3-8.2-21.1-15.3-27.4-27.9C101.4,369.7,102.4,363.8,105.4,362z"/>
</g>
<text transform="matrix(1 0 0 1 221.859 415.0772)" fill="#515151" font-family="'SansSerif'" font-size="26.5757">Crescent Valley High School</text>
<text transform="matrix(1 0 0 1 216.544 374.3195)" font-family="'SansSerifBold'" font-size="86.6335" letter-spacing="8">DREAM</text>
<text transform="matrix(1 0 0 1 216.544 374.3195)" fill="none" stroke="#000000" stroke-miterlimit="10" font-family="'SansSerifBold'" font-size="86.6335" letter-spacing="8">DREAM</text>
<line fill="none" stroke="#000000" stroke-width="3" stroke-miterlimit="10" x1="222.6" y1="385.4" x2="564.3" y2="385.4"/>
</svg>
