<?xml version="1.0" encoding="utf-8"?>
<!-- Generator: Adobe Illustrator 20.1.0, SVG Export Plug-In . SVG Version: 6.00 Build 0)  -->
<svg version="1.1" id="Layer_1" xmlns="http://www.w3.org/2000/svg" xmlns:xlink="http://www.w3.org/1999/xlink" x="0px" y="0px"
	 viewBox="0 0 439 443" style="enable-background:new 0 0 439 443;" xml:space="preserve">
<style type="text/css">
	.st0{fill:#740000;}
	.st1{fill:none;stroke:#231F20;stroke-miterlimit:10;}
	.st2{fill:#0A0A0A;}
	.st3{fill:none;}
	.st4{clip-path:url(#SVGID_2_);fill:#C79D3F;}
	.st5{clip-path:url(#SVGID_2_);fill:#FFFFFF;}
	.st6{fill:#C79D3F;}
</style>
<path class="st0" d="M407.5,223.7c0-104.9-85.1-190-190-190c-104.9,0-190,85.1-190,190s85.1,190,190,190
	C322.4,413.7,407.5,328.6,407.5,223.7"/>
<line class="st1" x1="139.1" y1="36.6" x2="139.1" y2="36.6"/>
<line class="st1" x1="130.5" y1="394.3" x2="130.5" y2="394.3"/>
<path class="st2" d="M217.5,33.7c-22.1,0-43.3,3.8-63,10.7c74,26,127,96.4,127,179.3s-53,153.3-127,179.3
	c19.7,6.9,40.9,10.7,63,10.7c104.9,0,190-85.1,190-190S322.4,33.7,217.5,33.7"/>
<rect x="-85" y="-166" class="st3" width="612" height="792"/>
<g>
	<defs>
		<rect id="SVGID_1_" x="-85" y="-166" width="612" height="792"/>
	</defs>
	<clipPath id="SVGID_2_">
		<use xlink:href="#SVGID_1_"  style="overflow:visible;"/>
	</clipPath>
	<path class="st4" d="M168.8,161c-10.1-3.4-20.9,0-31,2.4c-26,6-54,4.5-79.1-5c4.3,8.6,10.9,15.9,20,19.8
		c15.5,6.9,32.9,6.9,49.4,2.8c9.1-2.2,15.9-8.8,24.5-11.9c13.1-4.5,24.8,1.5,28,2.8C177.8,167.4,174.4,162.5,168.8,161 M169,165.3
		c-8.2-1.3-14.2-0.4-21.5,2.6c-16.8,7.3-31.6,16.6-53.8,11.2c2.4-1,4.7-2.2,7.1-3c-8.2,1.7-17.2,2.2-23.6-2.4c1.7-0.2,3.9-1,7.7-3
		c-3.9,0.4-12.1,4.5-22-7.9c19.2,6.9,38.9,9.5,58.9,6.2c10.3-1.3,20.2-5.2,30.5-6.9c7.5-1.3,17.6,0.8,21.8,5.2
		C173.2,166.6,170.2,165.5,169,165.3"/>
	<path class="st5" d="M133.7,208.4c0,0.8-1.7,13.1-1.3,14.4c35.3,1.3,53.6,1.3,74.8,1.3c-7.1,1.3-14.4,2.2-21.8,2.2
		c-22.2,0.4-44.6,1.3-66.7-0.6c-5-0.2-13.5-1.3-13.5-4.1c0-3.2,12.5-7.5,19.8-9.5c-10.1,9.7-6.9,10.1,0.8,10.5
		C127.8,220.1,132.8,209.8,133.7,208.4"/>
	<path class="st4" d="M146.6,208.1c9.7,1.5,19.2,3.6,28.6,5.6c-0.4,0.8-1.3,2.4-1.7,3.2c-7.1,0-14.4,0.8-21.3-1.3
		C148.8,214.6,147.9,210.7,146.6,208.1"/>
	<path class="st4" d="M191.8,216.9c5.2-5.2,12.9-4.5,19.4-6.2c-2.2,2.4-3.6,6.5-7.3,6.5C199.7,217.6,195.8,217.1,191.8,216.9"/>
	<path class="st5" d="M123.2,162.8c19.2-9.7,43.9-21.5,66-16.6c12.7,2.6,23.2,10.3,29.7,23c-0.6-7.5-2-12.5-3-18.7
		c8.2,9.3,12.5,21.5,11.6,29.9c-0.8,8.6-7.5,18.5-17,22.6c-9.3,4.3-20.8,4.3-30.8,4.3c-13.3-0.4-26.9-1.5-39.8-5.4
		c-8.4-2.4-17.2-8.2-25.2-7.3c-0.4,3.2,1,6.2,2.2,9.1c-7.5-4.5-15.1-9.5-21.3-15.9c11.6,2.8,23.6,4.7,35.7,2.8
		c14.9-1.7,28.2-8.6,42.6-12.3c7.5-2,17.6-0.6,23,5.4c4.7,5.4,5,10.7,3.4,18.3c9.5-1.7,18.5-12.7,18.5-23
		c-7.3-13.5-26.7-28.2-54.2-26.9C150,153.5,137.1,160.4,123.2,162.8"/>
	<path class="st5" d="M130.2,233.5c16.6,5,32.9,5.8,49.9,4.5c-1.3,12.9-2.6,26.7,3.2,38.7c2.6,5.4,6.7,9.9,10.9,14
		c-4.3-8.8-8.4-18.3-8.6-28.4c0-8.4,0.6-17.6,5.2-25c3.4-1.5,7.3-2,10.9-2.8c-5.8,11.2-9.5,24.1-7.3,36.7c0.8,7.5,3.4,14.6,6.5,21.3
		c-23-0.6-46.4-3.4-68.2-11.4c-13.5-5.2-27.3-12.5-35.3-25.2c-2.8-5-6-10.9-2.8-16.3c5.8,9.3,12.3,18.5,21.5,24.8
		c13.1,8.6,27.8,14.6,42.6,19.4c-10.9-9.3-22.6-17.4-33.7-26.6c9.7,3.9,18.7,8.4,28.4,12.3c-9.5-7.5-19.4-14-25.2-25.6
		C126.6,240.6,127.4,235.2,130.2,233.5"/>
</g>
<g>
	<path class="st6" d="M272.3,122.8l37.2-20.8l7.4,13.2c1.7,3,2.7,5.9,2.9,8.7c0.3,2.8,0,5.4-0.8,7.9c-0.8,2.5-2.1,4.7-4,6.7
		c-1.8,2-4,3.8-6.6,5.2c-2.8,1.6-5.6,2.6-8.4,3c-2.8,0.4-5.4,0.3-7.9-0.4c-2.5-0.7-4.8-1.9-7-3.6c-2.1-1.7-4-4-5.5-6.7L272.3,122.8z
		 M305.1,137.7c2-1.1,3.6-2.4,4.9-3.8c1.3-1.5,2.3-3,2.9-4.7c0.6-1.7,0.8-3.5,0.6-5.4c-0.2-1.9-0.8-3.8-1.9-5.7l-4.1-7.3l-26.8,15
		l4.1,7.3c1.1,2,2.4,3.5,3.9,4.6c1.5,1.1,3.2,1.9,5,2.2c1.8,0.4,3.6,0.3,5.6-0.1C301.2,139.5,303.2,138.8,305.1,137.7z"/>
	<path class="st6" d="M293.7,165l41.1-11.3l4.9,17.9c0.5,1.9,0.6,3.7,0.3,5.4c-0.3,1.8-1,3.4-1.9,4.9c-0.9,1.5-2.1,2.7-3.6,3.8
		c-1.4,1.1-3,1.8-4.6,2.3c-1.4,0.4-2.8,0.6-4.2,0.5c-1.4,0-2.7-0.3-4-0.6c-1.3-0.4-2.4-1-3.5-1.8c-1.1-0.8-2-1.7-2.7-2.8l-13,14
		l-2-7.3l11.8-12.8l-2.6-9.5l-14.3,3.9L293.7,165z M315.5,166l3.1,11.3c0.3,0.9,0.7,1.7,1.3,2.3c0.6,0.6,1.3,1.1,2.2,1.5
		c0.9,0.3,1.8,0.5,2.8,0.6c1,0.1,2-0.1,3.1-0.3c1-0.3,2-0.7,2.8-1.4c0.8-0.6,1.5-1.3,2-2.1c0.5-0.8,0.9-1.6,1.1-2.5
		c0.2-0.9,0.2-1.8-0.1-2.6l-3-11L315.5,166z"/>
	<path class="st6" d="M310.9,237.1l-5.9,0.3l-1.3-29.2l42.6-1.9l1.3,28.7l-5.9,0.3l-1-21.9l-12.1,0.5l0.8,19l-5.6,0.2l-0.8-19
		l-13,0.6L310.9,237.1z"/>
	<path class="st6" d="M343.9,269l-1.1,5.8l-44.9,8.9l1.3-7l12.2-2.4l2.9-16.2l-10.6-6.4l1.3-7L343.9,269z M316.5,274l19.2-3.5
		L319,260.3L316.5,274z"/>
	<path class="st6" d="M279.6,325.2l27.6,13.3L291.8,317l1.6-3.4l26.4-1.4L292.2,299l2.9-6.1l38.4,18.4l-3.1,6.5l-29.6,1.4l17.4,24
		l-3.1,6.5l-38.4-18.4L279.6,325.2z"/>
</g>
</svg>
